<?xml version="1.0" standalone="no"?>
<!DOCTYPE svg PUBLIC "-//W3C//DTD SVG 1.1//EN" "http://www.w3.org/Graphics/SVG/1.1/DTD/svg11.dtd" >
<svg xmlns="http://www.w3.org/2000/svg">
<metadata></metadata>
<defs>
<font id="brokerenregular" horiz-adv-x="1163" >
<font-face units-per-em="2048" ascent="1638" descent="-410" />
<missing-glyph horiz-adv-x="508" />
<glyph horiz-adv-x="2048" />
<glyph horiz-adv-x="2048" />
<glyph unicode="&#xd;" horiz-adv-x="508" />
<glyph unicode=" "  horiz-adv-x="508" />
<glyph unicode="&#x09;" horiz-adv-x="508" />
<glyph unicode="&#xa0;" horiz-adv-x="508" />
<glyph unicode="!" horiz-adv-x="549" d="M100 175q0 72 51 123t124 51q72 0 123 -51t51 -123q0 -73 -51 -124t-123 -51q-73 0 -124 51t-51 124zM114 587v865q0 63 45 108q45 44 107 44h17q63 0 107 -44q45 -45 45 -108v-865q0 -63 -45 -107q-44 -45 -107 -45h-17q-62 0 -107 45q-45 44 -45 107z" />
<glyph unicode="&#x22;" horiz-adv-x="1003" d="M100 1430q0 72 51 123t124 51q72 0 123 -51t51 -123q0 -43 -19 -81l-127 -298h-56l-127 298q-20 38 -20 81zM554 1430q0 72 51 123t124 51q72 0 123 -51t51 -123q0 -43 -19 -81l-127 -298h-56l-127 298q-20 38 -20 81z" />
<glyph unicode="#" horiz-adv-x="1369" d="M100 507v15q0 57 45 98q44 40 107 40h20l50 284h-70q-63 0 -107 41q-45 40 -45 97v15q0 57 45 98q44 41 107 41h122l28 159q11 62 58 99q38 29 81 29q12 0 24 -2l15 -3q56 -10 89 -61q24 -38 24 -82q0 -15 -3 -31l-19 -108h180l28 159q11 62 59 99q38 29 81 29 q12 0 24 -2l15 -3q56 -10 88 -61q25 -38 25 -83q0 -14 -3 -30l-20 -111q52 -10 87 -48q34 -38 34 -88v-15q0 -57 -44 -97q-45 -41 -108 -41h-20l-50 -284h70q63 0 108 -40q44 -41 44 -98v-15q0 -57 -44 -98q-45 -40 -108 -40h-121l-28 -160q-11 -62 -59 -98q-38 -29 -81 -29 q-11 0 -23 2l-15 2q-57 10 -89 61q-25 38 -25 83q0 15 3 30l19 109h-180l-28 -160q-11 -62 -59 -98q-38 -29 -81 -29q-11 0 -23 2l-15 2q-57 10 -89 61q-24 39 -24 84q0 14 2 29l20 112q-52 10 -86 47q-35 39 -35 88zM570 660h180l50 284h-180z" />
<glyph unicode="$" d="M100 152v17q0 63 45 107q44 45 107 45h490v321h-490q-63 0 -107 44q-45 45 -45 108v658q0 63 45 108q44 44 107 44h204v161h251v-161h203q63 0 108 -44q45 -45 45 -108v-16q0 -63 -45 -108q-45 -44 -108 -44h-489v-322h489q63 0 108 -44q45 -45 45 -108v-658 q0 -63 -45 -107q-45 -45 -108 -45h-203v-160h-251v160h-204q-63 0 -107 45q-45 44 -45 107z" />
<glyph unicode="%" horiz-adv-x="2230" d="M100 844v659q0 42 30 72q30 29 72 29h580q42 0 72 -29q30 -30 30 -72v-659q0 -42 -30 -72t-72 -30h-580q-42 0 -72 30t-30 72zM225 0l1454 1604h326l-1454 -1604h-326zM320 962h344v422h-344v-422zM1346 102v659q0 42 30 71q30 30 72 30h580q42 0 72 -30q30 -29 30 -71 v-659q0 -42 -30 -72t-72 -30h-580q-42 0 -72 30t-30 72zM1566 220h343v422h-343v-422z" />
<glyph unicode="&#x26;" horiz-adv-x="1375" d="M100 152v490q63 0 107 45q45 44 45 107v17q0 62 -45 107q-44 45 -107 45v489q0 63 45 108q44 44 107 44h658q63 0 108 -44q45 -45 45 -108v-17q0 -62 -45 -107t-108 -45h-489v-320h321v31q0 63 44 108q45 44 108 44h16q63 0 108 -44q45 -45 45 -108v-31h60q62 0 107 -45 t45 -107v-17q0 -63 -45 -107q-45 -45 -107 -45h-60v-490q0 -63 -45 -107q-45 -45 -108 -45h-658q-63 0 -107 45q-45 44 -45 107zM421 321h321v321h-321v-321z" />
<glyph unicode="'" horiz-adv-x="549" d="M100 1430q0 72 51 123t124 51q72 0 123 -51t51 -123q0 -43 -19 -81l-127 -298h-56l-127 298q-20 38 -20 81z" />
<glyph unicode="(" horiz-adv-x="651" d="M100 -8v1621q0 62 45 107q44 45 107 45h299v-321h-130v-1284h130v-320h-299q-63 0 -107 44q-45 45 -45 108z" />
<glyph unicode=")" horiz-adv-x="651" d="M100 -160v320h130v1284h-130v321h299q63 0 107 -45q45 -45 45 -107v-1621q0 -63 -45 -108q-44 -44 -107 -44h-299z" />
<glyph unicode="*" horiz-adv-x="1023" d="M100 1434v57l269 114l114 269h57l114 -269l269 -114v-57l-269 -114l-114 -269h-57l-114 269z" />
<glyph unicode="+" horiz-adv-x="1369" d="M100 795v15q0 55 45 95q44 40 107 40h290v290q0 63 40 107q40 45 95 45h15q56 0 95 -45q40 -44 40 -107v-290h290q63 0 108 -40q44 -40 44 -95v-15q0 -56 -44 -95q-45 -40 -108 -40h-290v-290q0 -63 -40 -108q-39 -44 -95 -44h-15q-55 0 -95 44q-40 45 -40 108v290h-290 q-63 0 -107 40q-45 39 -45 95z" />
<glyph unicode="," horiz-adv-x="549" d="M100 175q0 72 51 123t124 51q72 0 123 -51t51 -123q0 -43 -19 -81l-127 -298h-132l37 217q-108 45 -108 162z" />
<glyph unicode="-" horiz-adv-x="1135" d="M100 795v15q0 55 36 95q35 40 86 40h691q50 0 86 -40t36 -95v-15q0 -56 -36 -95q-36 -40 -86 -40h-691q-51 0 -86 40q-36 39 -36 95z" />
<glyph unicode="." horiz-adv-x="549" d="M100 175q0 72 51 123t124 51q72 0 123 -51t51 -123q0 -73 -51 -124t-123 -51q-73 0 -124 51t-51 124z" />
<glyph unicode="/" horiz-adv-x="809" d="M100 0l283 1604h326l-283 -1604h-326z" />
<glyph unicode="0" horiz-adv-x="1085" d="M100 152v1300q0 63 45 108q44 44 107 44h580q63 0 108 -44q45 -45 45 -108v-1300q0 -63 -45 -107q-45 -45 -108 -45h-580q-63 0 -107 45q-45 44 -45 107zM421 321h243v963h-243v-963z" />
<glyph unicode="1" horiz-adv-x="996" d="M100 152v17q0 63 45 107q44 45 107 45h85v963h-85q-63 0 -107 44q-45 45 -45 108v16q0 63 45 108q44 44 107 44h254q63 0 108 -44q44 -45 44 -108v-1131h85q63 0 108 -45q45 -44 45 -107v-17q0 -63 -45 -107q-45 -45 -108 -45h-491q-63 0 -107 45q-45 44 -45 107z" />
<glyph unicode="2" d="M100 152q0 36 5 55l77 603q0 63 45 108q44 44 107 44h408v322h-412q-63 0 -107 44q-45 45 -45 108v16q0 63 45 108q44 44 107 44h580q63 0 108 -44q45 -45 45 -108v-658q0 -63 -45 -108q-45 -44 -108 -44h-427l-41 -321h468q63 0 108 -45q45 -44 45 -107v-17 q0 -63 -45 -107q-45 -45 -108 -45h-658q-63 0 -107 45q-45 44 -45 107z" />
<glyph unicode="3" d="M100 152v17q0 63 45 107q44 45 107 45h490v321h-412q-63 0 -107 45q-45 45 -45 107v17q0 63 45 107q44 45 107 45h412v321h-412q-63 0 -107 44q-45 45 -45 108v16q0 63 45 108q44 44 107 44h580q63 0 108 -44q45 -45 45 -108v-489q-63 0 -108 -45q-45 -44 -45 -107v-17 q0 -62 45 -107t108 -45v-490q0 -63 -45 -107q-45 -45 -108 -45h-658q-63 0 -107 45q-45 44 -45 107z" />
<glyph unicode="4" d="M100 619q0 32 4 50l191 935h300l-144 -816h291v816h321v-1604h-321v467h-490q-63 0 -107 45q-45 45 -45 107z" />
<glyph unicode="5" d="M100 152v17q0 63 45 107q44 45 107 45h490v321h-408q-63 0 -107 45q-45 45 -45 107v17q0 24 7 47l76 585v9q0 63 45 108q45 44 107 44h493q63 0 108 -44q45 -45 45 -108v-16q0 -63 -45 -108q-45 -44 -108 -44h-343l-41 -321h384q63 0 108 -45q45 -44 45 -107v-659 q0 -63 -45 -107q-45 -45 -108 -45h-658q-63 0 -107 45q-45 44 -45 107z" />
<glyph unicode="6" d="M100 152v1300q0 63 45 108q44 44 107 44h580q63 0 108 -44q45 -45 45 -108v-16q0 -63 -45 -108q-45 -44 -108 -44h-411v-321h489q63 0 108 -45q45 -44 45 -107v-659q0 -63 -45 -107q-45 -45 -108 -45h-658q-63 0 -107 45q-45 44 -45 107zM421 321h321v321h-321v-321z" />
<glyph unicode="7" d="M100 1436v16q0 63 45 108q44 44 107 44h658q63 0 108 -44q45 -45 45 -108q0 -34 -5 -52l-298 -1400h-328l273 1284h-453q-63 0 -107 44q-45 45 -45 108z" />
<glyph unicode="8" d="M100 152v490q63 0 107 45q45 45 45 107v17q0 63 -45 107q-44 45 -107 45v489q0 63 45 108q44 44 107 44h658q63 0 108 -44q45 -45 45 -108v-489q-63 0 -107 -44q-45 -44 -46 -107v-19q1 -62 46 -107q44 -44 107 -44v-490q0 -63 -45 -107q-45 -45 -108 -45h-658 q-63 0 -107 45q-45 44 -45 107zM421 321h321v321h-321v-321zM421 963h321v321h-321v-321z" />
<glyph unicode="9" d="M100 152v17q0 63 45 107q44 45 107 45h490v320h-412q-63 0 -107 45q-45 45 -45 108v658q0 63 45 108q44 44 107 44h580q63 0 108 -44q45 -45 45 -108v-1300q0 -63 -45 -107q-45 -45 -108 -45h-658q-63 0 -107 45q-45 44 -45 107zM499 962h243v322h-243v-322z" />
<glyph unicode=":" horiz-adv-x="549" d="M100 354q0 72 51 124q51 51 124 51q72 0 123 -51q51 -52 51 -124t-51 -123q-51 -52 -123 -52q-73 0 -124 52q-51 51 -51 123zM100 1011q0 73 51 124t124 51q72 0 123 -51t51 -124q0 -72 -51 -123t-123 -51q-73 0 -124 51t-51 123z" />
<glyph unicode=";" horiz-adv-x="549" d="M100 175q0 72 51 123t124 51q72 0 123 -51t51 -123q0 -43 -19 -81l-127 -298h-132l37 217q-108 44 -108 162zM100 1011q0 73 51 124t124 51q72 0 123 -51t51 -124q0 -72 -51 -123t-123 -51q-73 0 -124 51t-51 123z" />
<glyph unicode="&#x3c;" horiz-adv-x="1369" d="M100 794v16q0 55 35 97t88 53l894 319q15 5 30 5q40 0 76 -39q46 -52 46 -118v-17q0 -63 -44 -107q-45 -45 -108 -45l-623 -156l623 -156q63 0 108 -45q44 -44 44 -107v-17q0 -66 -46 -118q-36 -39 -76 -39q-15 0 -30 5l-895 320q-122 43 -122 149z" />
<glyph unicode="=" horiz-adv-x="1369" d="M100 514v15q0 56 45 95q44 40 107 40h865q63 0 108 -40q44 -39 44 -95v-15q0 -55 -44 -95q-45 -40 -108 -40h-865q-63 0 -107 40q-45 40 -45 95zM100 1075v15q0 56 45 95q44 40 107 40h865q63 0 108 -40q44 -39 44 -95v-15q0 -55 -44 -95q-45 -40 -108 -40h-865 q-63 0 -107 40q-45 40 -45 95z" />
<glyph unicode="&#x3e;" horiz-adv-x="1369" d="M100 477v17q0 63 44 107q45 45 108 45l623 156l-623 156q-63 0 -108 45q-44 44 -44 107v17q0 66 46 118q36 39 76 39q15 0 30 -5l894 -319q53 -11 88 -53t35 -97v-16q0 -106 -122 -149l-895 -320q-15 -5 -30 -5q-40 0 -76 39q-46 52 -46 118z" />
<glyph unicode="?" d="M100 1436v16q0 63 45 108q45 44 107 44h659q63 0 107 -44q45 -45 45 -108v-659q0 -62 -45 -107q-44 -45 -107 -45h-309v-54q0 -63 -45 -107q-44 -45 -107 -45h-17q-63 0 -107 45q-45 44 -45 107v223q0 62 44 107q44 44 106 45h311v321h-490q-62 0 -107 45t-45 108z M267 175q0 72 51 123t124 51q72 0 123 -51t51 -123q0 -73 -51 -124t-123 -51q-73 0 -124 51t-51 124z" />
<glyph unicode="@" horiz-adv-x="2213" d="M100 0v1325q0 62 45 107q44 45 107 45h1709q62 0 107 -45t45 -107v-1173q0 -63 -45 -107q-45 -45 -107 -45h-411v7q0 63 -45 107q-44 45 -107 45h-17q-62 0 -107 -45q-45 -44 -45 -107v-7h-412q-63 0 -108 45q-45 44 -45 107v609q0 62 45 107t108 45h580q63 0 107 -45 q45 -45 45 -107v-440h243v835h-1371v-1156h-321zM985 321h243v271h-243v-271z" />
<glyph unicode="A" horiz-adv-x="1231" d="M70 0l300 1479q10 54 52 89q42 36 97 36h193q55 0 97 -36t53 -90l299 -1478h-336l-50 294h-319l-50 -294h-336zM510 615h211l-106 626z" />
<glyph unicode="B" d="M100 0v1604h811q63 0 107 -44q45 -45 45 -108v-489q-62 0 -107 -44q-45 -45 -45 -107v-19q0 -63 45 -107t107 -44v-490q0 -63 -45 -107q-44 -45 -107 -45h-811zM421 321h321v321h-321v-321zM421 963h321v320h-321v-320z" />
<glyph unicode="C" d="M100 152v1300q0 63 45 108q44 44 107 44h670l4 -1h4q54 -7 91 -46q36 -39 41 -93v-4l1 -4v-261q0 -62 -45 -107t-108 -45h-16q-63 0 -108 45q-44 45 -44 107v88h-321v-962h321v109q0 63 44 107q45 45 108 45h16q63 0 108 -45q45 -44 45 -107v-278q0 -63 -45 -107 q-45 -45 -108 -45h-658q-63 0 -107 45q-45 44 -45 107z" />
<glyph unicode="D" horiz-adv-x="1162" d="M100 0v1604h810q63 0 108 -44q44 -45 44 -108v-1300q0 -63 -44 -107q-45 -45 -108 -45h-810zM421 321h320v962h-320v-962z" />
<glyph unicode="E" horiz-adv-x="1153" d="M100 152v1300q0 63 45 108q45 44 107 44h659q63 0 107 -44q45 -45 45 -108v-16q0 -63 -45 -108q-44 -45 -107 -45h-490v-321h423q63 0 108 -45q44 -44 44 -107v-17q0 -62 -44 -107q-45 -45 -108 -45h-423v-320h490q63 0 107 -45q45 -45 45 -107v-17q0 -63 -45 -107 q-44 -45 -107 -45h-659q-62 0 -107 45q-45 44 -45 107z" />
<glyph unicode="F" horiz-adv-x="1113" d="M100 0v1452q0 63 45 108q44 44 107 44h658q63 0 108 -44q45 -45 45 -108v-16q0 -63 -45 -108t-108 -45h-489v-321h423q63 0 107 -45q45 -44 45 -107v-17q0 -62 -45 -107q-44 -45 -107 -45h-423v-641h-321z" />
<glyph unicode="G" d="M100 152v1300q0 63 45 108q45 44 108 44h658q63 0 107 -44q45 -45 45 -108v-16q0 -63 -45 -108q-44 -45 -107 -45h-490v-962h321v489q0 63 45 107q45 45 107 45h17q63 0 107 -45q45 -44 45 -107v-670l-1 -4q-6 -57 -49 -97q-43 -39 -102 -39h-658q-63 0 -108 45 q-45 44 -45 107z" />
<glyph unicode="H" d="M100 0v1604h321v-642h321v642h321v-1604h-321v641h-321v-641h-321z" />
<glyph unicode="I" horiz-adv-x="541" d="M110 0v1604h321v-1604h-321z" />
<glyph unicode="J" horiz-adv-x="1142" d="M80 152v278q0 63 44 107q45 45 108 45h16q63 0 108 -45q45 -44 45 -107v-109h320v962h-110q-62 0 -107 45t-45 108v16q0 63 45 108q45 44 107 44h431v-1452q0 -63 -44 -107q-45 -45 -108 -45h-658q-63 0 -108 45q-44 44 -44 107z" />
<glyph unicode="K" horiz-adv-x="1165" d="M100 0v1604h321v-642h256l99 642h329l-99 -642q-62 0 -107 -44q-44 -44 -45 -107v-19q1 -62 45 -106q45 -45 107 -45l98 -641h-329l-98 641h-256v-641h-321z" />
<glyph unicode="L" horiz-adv-x="1112" d="M100 152v1452h320v-1283h490q63 0 108 -45q44 -45 44 -107v-17q0 -63 -44 -107q-45 -45 -108 -45h-658q-63 0 -108 45q-44 44 -44 107z" />
<glyph unicode="M" horiz-adv-x="1807" d="M100 0v1452q0 63 45 108q45 44 107 44h492q0 -63 45 -107q45 -45 108 -45h16q63 0 108 45q44 44 44 107h490q63 0 107 -44q45 -45 45 -108v-1452h-321v1283h-323v-1283h-321v1283h-321v-1283h-321z" />
<glyph unicode="N" d="M100 0v1604h181q65 -2 102 -29q34 -25 76 -97l283 -676v802h321v-1604h-182q-65 2 -101 29q-34 25 -76 97l-283 676v-802h-321z" />
<glyph unicode="O" d="M100 152v1300q0 63 45 108q44 44 107 44h658q63 0 108 -44q45 -45 45 -108v-1300q0 -63 -45 -107q-45 -45 -108 -45h-658q-63 0 -107 45q-45 44 -45 107zM421 321h321v963h-321v-963z" />
<glyph unicode="P" d="M100 0v1604h826l4 -1h3l4 -1l4 -1h4l3 -1l4 -1l4 -1l3 -2l4 -1l3 -1l3 -2l4 -1l3 -2l3 -1h1l3 -2l3 -2l3 -2l3 -2l3 -2l3 -2l3 -2l3 -2l3 -2l3 -3l3 -2l2 -3l3 -2l2 -3l3 -3l2 -2l3 -3l2 -3l2 -3l2 -3l2 -3l2 -3l2 -3l2 -3l2 -3l2 -4l1 -3l2 -3l2 -4l1 -3l1 -4l1 -3h1 l1 -4l1 -3l1 -4l1 -3v-4l1 -4l1 -4v-3l1 -4v-12l1 -4v-658q0 -63 -45 -108q-45 -44 -108 -44h-489v-642h-321zM421 962h321v322h-321v-322z" />
<glyph unicode="Q" horiz-adv-x="1185" d="M100 152v1300q0 63 44 108q45 44 108 44h658q63 0 108 -44q44 -45 44 -108v-1073q-85 0 -146 -61t-61 -146v-23q0 -87 63 -149h-666q-63 0 -108 45q-44 44 -44 107zM421 321h321v963h-321v-963zM910 152v17q0 63 45 107q45 45 107 45q63 0 108 -45q45 -44 45 -107v-17 q0 -63 -45 -107q-45 -45 -108 -45q-62 0 -107 45q-45 44 -45 107z" />
<glyph unicode="R" d="M100 0v1604h826l4 -1h4l4 -1l4 -1h3l4 -1l4 -1l3 -1l4 -2l3 -1l4 -1l3 -2l3 -1l4 -2l3 -1l3 -2l4 -2l3 -2l3 -2l3 -2l3 -2l3 -2l3 -2l3 -2l2 -3l3 -2l3 -3l2 -2l3 -3l2 -3l3 -2l2 -3l3 -3l2 -3l2 -3l2 -3l2 -3l2 -3l2 -3l2 -3l1 -4l2 -3l2 -3l1 -4l2 -3l1 -4l1 -3l1 -4 l1 -3l1 -4l1 -3l1 -4l1 -4v-4l1 -3v-4l1 -4v-502q-63 0 -107 -44q-45 -45 -45 -108v-16q0 -63 45 -108q44 -44 107 -44v-642h-321v642h-321v-642h-321zM421 962h321v322h-321v-322z" />
<glyph unicode="S" d="M100 152v17q0 63 45 107q44 45 107 45h490v321h-490q-63 0 -107 44q-45 45 -45 108v658q0 63 45 108q44 44 107 44h658q63 0 108 -44q45 -45 45 -108v-16q0 -63 -45 -108q-45 -44 -108 -44h-489v-322h489q63 0 108 -44q45 -45 45 -108v-658q0 -63 -45 -107 q-45 -45 -108 -45h-658q-63 0 -107 45q-45 44 -45 107z" />
<glyph unicode="T" horiz-adv-x="1196" d="M50 1436v16q0 63 45 108q45 44 107 44h792q63 0 108 -44q44 -45 44 -108v-16q0 -63 -44 -108q-45 -44 -108 -44h-235v-1284h-321v1284h-236q-62 0 -107 44q-45 45 -45 108z" />
<glyph unicode="U" horiz-adv-x="1162" d="M100 152v1452h320v-1283h321v1283h321v-1452q0 -63 -45 -107q-44 -45 -107 -45h-658q-63 0 -108 45q-44 44 -44 107z" />
<glyph unicode="V" horiz-adv-x="1232" d="M70 1604h337l209 -1241l209 1241h337l-299 -1470q-7 -57 -50 -95q-43 -39 -101 -39h-192q-58 0 -101 39q-44 38 -50 95z" />
<glyph unicode="W" horiz-adv-x="1986" d="M70 1604h337l209 -1241l219 1118q10 53 52 88q43 35 98 35h16q55 0 97 -34q41 -34 52 -86l220 -1121l209 1241h337l-299 -1470q-6 -57 -49 -95q-44 -39 -102 -39h-192q-58 0 -101 39q-43 38 -50 95l-130 690l-130 -690q-7 -57 -50 -95q-43 -39 -101 -39h-192 q-58 0 -101 39q-43 38 -50 95z" />
<glyph unicode="X" horiz-adv-x="1180" d="M70 1604h337l95 -642h176l95 642h337l-99 -642q-62 0 -107 -44q-44 -44 -45 -106v-20q1 -62 45 -106q45 -44 107 -44l98 -642h-336l-95 642h-176l-95 -642h-336l97 642q63 0 107 44q45 44 46 106v20q-1 62 -46 106q-44 44 -107 44z" />
<glyph unicode="Y" horiz-adv-x="1177" d="M80 1604h321l65 -642h246l64 642h321l-91 -810q-8 -65 -49 -108q-43 -44 -104 -44h-104v-642h-321v642h-104q-63 0 -108 44q-44 45 -44 108z" />
<glyph unicode="Z" horiz-adv-x="1123" d="M80 152q0 56 19 90l545 1042h-412q-63 0 -107 44q-45 45 -45 108v16q0 63 45 108q44 44 107 44h659q62 0 107 -44q45 -45 45 -108v-16q0 -38 -18 -71l-543 -1044h409q62 0 107 -45q45 -44 45 -107v-17q0 -63 -45 -107q-45 -45 -107 -45h-659q-63 0 -107 45 q-45 44 -45 107z" />
<glyph unicode="[" horiz-adv-x="651" d="M100 -161v1926h451v-321h-130v-1284h130v-321h-451z" />
<glyph unicode="\" horiz-adv-x="569" d="M100 1604h326l283 -1604h-326z" />
<glyph unicode="]" horiz-adv-x="651" d="M100 160h130v1284h-130v321h451v-1926h-451v321z" />
<glyph unicode="^" horiz-adv-x="1164" d="M100 723q0 12 5 25l320 753q10 44 52 74q42 29 97 29h16q106 0 150 -103l319 -753q5 -13 5 -25q0 -34 -39 -64q-52 -39 -118 -39h-17q-63 0 -107 37q-45 38 -45 91l-156 524l-156 -524q0 -53 -45 -91q-44 -37 -107 -37h-17q-66 0 -118 39q-39 30 -39 64z" />
<glyph unicode="_" horiz-adv-x="1370" d="M100 -20q0 52 45 89t108 37h865q62 0 107 -37t45 -89v-14q0 -52 -45 -89t-107 -37h-865q-63 0 -108 37t-45 89v14z" />
<glyph unicode="`" horiz-adv-x="641" d="M100 2140h350l91 -442h-131z" />
<glyph unicode="a" horiz-adv-x="1231" d="M70 0l300 1479q10 54 52 89q42 36 97 36h193q55 0 97 -36t53 -90l299 -1478h-336l-50 294h-319l-50 -294h-336zM510 615h211l-106 626z" />
<glyph unicode="b" d="M100 0v1604h811q63 0 107 -44q45 -45 45 -108v-489q-62 0 -107 -44q-45 -45 -45 -107v-19q0 -63 45 -107t107 -44v-490q0 -63 -45 -107q-44 -45 -107 -45h-811zM421 321h321v321h-321v-321zM421 963h321v320h-321v-320z" />
<glyph unicode="c" d="M100 152v1300q0 63 45 108q44 44 107 44h670l4 -1h4q54 -7 91 -46q36 -39 41 -93v-4l1 -4v-261q0 -62 -45 -107t-108 -45h-16q-63 0 -108 45q-44 45 -44 107v88h-321v-962h321v109q0 63 44 107q45 45 108 45h16q63 0 108 -45q45 -44 45 -107v-278q0 -63 -45 -107 q-45 -45 -108 -45h-658q-63 0 -107 45q-45 44 -45 107z" />
<glyph unicode="d" horiz-adv-x="1162" d="M100 0v1604h810q63 0 108 -44q44 -45 44 -108v-1300q0 -63 -44 -107q-45 -45 -108 -45h-810zM421 321h320v962h-320v-962z" />
<glyph unicode="e" horiz-adv-x="1133" d="M100 152v1300q0 63 45 108q45 44 107 44h659q63 0 107 -44q45 -45 45 -108v-16q0 -63 -45 -108q-44 -45 -107 -45h-490v-321h423q63 0 108 -45q44 -44 44 -107v-17q0 -62 -44 -107q-45 -45 -108 -45h-423v-320h490q63 0 107 -45q45 -45 45 -107v-17q0 -63 -45 -107 q-44 -45 -107 -45h-659q-62 0 -107 45q-45 44 -45 107z" />
<glyph unicode="f" horiz-adv-x="1113" d="M100 0v1452q0 63 45 108q44 44 107 44h658q63 0 108 -44q45 -45 45 -108v-16q0 -63 -45 -108t-108 -45h-489v-321h423q63 0 107 -45q45 -44 45 -107v-17q0 -62 -45 -107q-44 -45 -107 -45h-423v-641h-321z" />
<glyph unicode="g" d="M100 152v1300q0 63 45 108q45 44 108 44h658q63 0 107 -44q45 -45 45 -108v-16q0 -63 -45 -108q-44 -45 -107 -45h-490v-962h321v489q0 63 45 107q45 45 107 45h17q63 0 107 -45q45 -44 45 -107v-670l-1 -4q-6 -57 -49 -97q-43 -39 -102 -39h-658q-63 0 -108 45 q-45 44 -45 107z" />
<glyph unicode="h" d="M100 0v1604h321v-642h321v642h321v-1604h-321v641h-321v-641h-321z" />
<glyph unicode="i" horiz-adv-x="541" d="M110 0v1604h321v-1604h-321z" />
<glyph unicode="j" horiz-adv-x="1142" d="M80 152v278q0 63 44 107q45 45 108 45h16q63 0 108 -45q45 -44 45 -107v-109h320v962h-110q-62 0 -107 45t-45 108v16q0 63 45 108q45 44 107 44h431v-1452q0 -63 -44 -107q-45 -45 -108 -45h-658q-63 0 -108 45q-44 44 -44 107z" />
<glyph unicode="k" horiz-adv-x="1175" d="M100 0v1604h321v-642h256l99 642h329l-99 -642q-62 0 -107 -44q-44 -44 -45 -107v-19q1 -62 45 -106q45 -45 107 -45l98 -641h-329l-98 641h-256v-641h-321z" />
<glyph unicode="l" horiz-adv-x="1112" d="M100 152v1452h320v-1283h490q63 0 108 -45q44 -45 44 -107v-17q0 -63 -44 -107q-45 -45 -108 -45h-658q-63 0 -108 45q-44 44 -44 107z" />
<glyph unicode="m" horiz-adv-x="1807" d="M100 0v1452q0 63 45 108q45 44 107 44h492q0 -63 45 -107q45 -45 108 -45h16q63 0 108 45q44 44 44 107h490q63 0 107 -44q45 -45 45 -108v-1452h-321v1283h-323v-1283h-321v1283h-321v-1283h-321z" />
<glyph unicode="n" d="M100 0v1604h181q65 -2 102 -29q34 -25 76 -97l283 -676v802h321v-1604h-182q-65 2 -101 29q-34 25 -76 97l-283 676v-802h-321z" />
<glyph unicode="o" d="M100 152v1300q0 63 45 108q44 44 107 44h658q63 0 108 -44q45 -45 45 -108v-1300q0 -63 -45 -107q-45 -45 -108 -45h-658q-63 0 -107 45q-45 44 -45 107zM421 321h321v963h-321v-963z" />
<glyph unicode="p" d="M100 0v1604h826l4 -1h3l4 -1l4 -1h4l3 -1l4 -1l4 -1l3 -2l4 -1l3 -1l3 -2l4 -1l3 -2l3 -1h1l3 -2l3 -2l3 -2l3 -2l3 -2l3 -2l3 -2l3 -2l3 -2l3 -3l3 -2l2 -3l3 -2l2 -3l3 -3l2 -2l3 -3l2 -3l2 -3l2 -3l2 -3l2 -3l2 -3l2 -3l2 -3l2 -4l1 -3l2 -3l2 -4l1 -3l1 -4l1 -3h1 l1 -4l1 -3l1 -4l1 -3v-4l1 -4l1 -4v-3l1 -4v-12l1 -4v-658q0 -63 -45 -108q-45 -44 -108 -44h-489v-642h-321zM421 962h321v322h-321v-322z" />
<glyph unicode="q" horiz-adv-x="1185" d="M100 152v1300q0 63 44 108q45 44 108 44h658q63 0 108 -44q44 -45 44 -108v-1073q-85 0 -146 -61t-61 -146v-23q0 -87 63 -149h-666q-63 0 -108 45q-44 44 -44 107zM421 321h321v963h-321v-963zM910 152v17q0 63 45 107q45 45 107 45q63 0 108 -45q45 -44 45 -107v-17 q0 -63 -45 -107q-45 -45 -108 -45q-62 0 -107 45q-45 44 -45 107z" />
<glyph unicode="r" d="M100 0v1604h826l4 -1h4l4 -1l4 -1h3l4 -1l4 -1l3 -1l4 -2l3 -1l4 -1l3 -2l3 -1l4 -2l3 -1l3 -2l4 -2l3 -2l3 -2l3 -2l3 -2l3 -2l3 -2l3 -2l2 -3l3 -2l3 -3l2 -2l3 -3l2 -3l3 -2l2 -3l3 -3l2 -3l2 -3l2 -3l2 -3l2 -3l2 -3l2 -3l1 -4l2 -3l2 -3l1 -4l2 -3l1 -4l1 -3l1 -4 l1 -3l1 -4l1 -3l1 -4l1 -4v-4l1 -3v-4l1 -4v-502q-63 0 -107 -44q-45 -45 -45 -108v-16q0 -63 45 -108q44 -44 107 -44v-642h-321v642h-321v-642h-321zM421 962h321v322h-321v-322z" />
<glyph unicode="s" d="M100 152v17q0 63 45 107q44 45 107 45h490v321h-490q-63 0 -107 44q-45 45 -45 108v658q0 63 45 108q44 44 107 44h658q63 0 108 -44q45 -45 45 -108v-16q0 -63 -45 -108q-45 -44 -108 -44h-489v-322h489q63 0 108 -44q45 -45 45 -108v-658q0 -63 -45 -107 q-45 -45 -108 -45h-658q-63 0 -107 45q-45 44 -45 107z" />
<glyph unicode="t" horiz-adv-x="1196" d="M50 1436v16q0 63 45 108q45 44 107 44h792q63 0 108 -44q44 -45 44 -108v-16q0 -63 -44 -108q-45 -44 -108 -44h-235v-1284h-321v1284h-236q-62 0 -107 44q-45 45 -45 108z" />
<glyph unicode="u" horiz-adv-x="1162" d="M100 152v1452h320v-1283h321v1283h321v-1452q0 -63 -45 -107q-44 -45 -107 -45h-658q-63 0 -108 45q-44 44 -44 107z" />
<glyph unicode="v" horiz-adv-x="1232" d="M70 1604h337l209 -1241l209 1241h337l-299 -1470q-7 -57 -50 -95q-43 -39 -101 -39h-192q-58 0 -101 39q-44 38 -50 95z" />
<glyph unicode="w" horiz-adv-x="1986" d="M70 1604h337l209 -1241l219 1118q10 53 52 88q43 35 98 35h16q55 0 97 -34q41 -34 52 -86l220 -1121l209 1241h337l-299 -1470q-6 -57 -49 -95q-44 -39 -102 -39h-192q-58 0 -101 39q-43 38 -50 95l-130 690l-130 -690q-7 -57 -50 -95q-43 -39 -101 -39h-192 q-58 0 -101 39q-43 38 -50 95z" />
<glyph unicode="x" horiz-adv-x="1200" d="M80 1604h337l95 -642h176l95 642h337l-99 -642q-62 0 -107 -44q-44 -44 -45 -106v-20q1 -62 45 -106q45 -44 107 -44l98 -642h-336l-95 642h-176l-95 -642h-336l97 642q63 0 107 44q45 44 46 106v20q-1 62 -46 106q-44 44 -107 44z" />
<glyph unicode="y" horiz-adv-x="1177" d="M80 1604h321l65 -642h246l64 642h321l-91 -810q-8 -65 -49 -108q-43 -44 -104 -44h-104v-642h-321v642h-104q-63 0 -108 44q-44 45 -44 108z" />
<glyph unicode="z" d="M100 152q0 56 19 90l545 1042h-412q-63 0 -107 44q-45 45 -45 108v16q0 63 45 108q44 44 107 44h659q62 0 107 -44q45 -45 45 -108v-16q0 -38 -18 -71l-543 -1044h409q62 0 107 -45q45 -44 45 -107v-17q0 -63 -45 -107q-45 -45 -107 -45h-659q-63 0 -107 45 q-45 44 -45 107z" />
<glyph unicode="{" horiz-adv-x="820" d="M100 642v320h169v650q0 63 45 108t108 45h298v-321h-130v-468q-69 -4 -116 -54q-48 -50 -48 -120t48 -120q47 -50 116 -54v-468h130v-321h-298q-63 0 -108 45t-45 108v650h-169z" />
<glyph unicode="|" horiz-adv-x="451" d="M100 -222v2048h251v-2048h-251z" />
<glyph unicode="}" horiz-adv-x="820" d="M100 160h130v468q69 4 116 54q48 50 48 120t-48 120q-47 50 -116 54v468h-130v321h298q63 0 108 -45t45 -108v-650h169v-320h-169v-650q0 -63 -45 -108t-108 -45h-298v321z" />
<glyph unicode="~" horiz-adv-x="1369" d="M100 784q0 177 246 186h30q167 0 342 -62q127 -30 195 -30q54 0 72 18q5 6 16 20q9 14 17 22q27 23 88 28q8 1 16 1q53 0 94 -30q48 -34 51 -86l1 -14q1 -11 1 -22q0 -165 -207 -195q-48 -7 -97 -7q-133 0 -282 49q-158 39 -236 39q-40 0 -59 -10q-9 -5 -21 -15 q-14 -13 -21 -17q-29 -20 -82 -24h-13q-55 0 -97 29q-48 34 -52 86l-1 14q-1 10 -1 20z" />
<glyph unicode="&#xa1;" horiz-adv-x="549" d="M100 1429q0 73 51 124t123 51q73 0 124 -51t51 -124q0 -72 -51 -123t-124 -51q-72 0 -123 51t-51 123zM114 152v865q0 63 45 107q44 45 107 45h17q62 0 107 -45q45 -44 45 -107v-865q0 -63 -45 -108q-45 -44 -107 -44h-17q-63 0 -107 44q-45 45 -45 108z" />
<glyph unicode="&#xa2;" horiz-adv-x="1085" d="M0 152v1300q0 63 45 108q44 44 107 44h202v222h251v-222h217l4 -1h4q54 -7 91 -46q36 -39 41 -93v-4l1 -4v-261q0 -62 -45 -107t-108 -45h-16q-63 0 -108 45q-44 45 -44 107v88h-321v-962h321v109q0 63 44 107q45 45 108 45h16q63 0 108 -45q45 -44 45 -107v-278 q0 -63 -45 -107q-45 -45 -108 -45h-205v-222h-251v222h-202q-63 0 -107 45q-45 44 -45 107z" />
<glyph unicode="&#xa3;" horiz-adv-x="1315" d="M100 152v17q0 62 44 107q45 45 108 45h19l36 329h-55q-63 0 -108 45q-44 45 -44 107v17q0 63 44 107q45 45 108 45h91l53 481q0 63 45 107q45 45 107 45h514q63 0 108 -44q45 -45 45 -108v-17q0 -62 -45 -107t-108 -45h-369l-39 -312h336q63 0 107 -45q45 -44 45 -107 v-17q0 -62 -45 -107q-44 -45 -107 -45h-376l-41 -329h489q63 0 108 -45t45 -107v-17q0 -63 -45 -107q-45 -45 -108 -45h-810q-63 0 -108 45q-44 44 -44 107z" />
<glyph unicode="&#xa4;" horiz-adv-x="1369" d="M231 482v11q2 60 47 104l88 88l-42 42q-34 34 -38 80v10q0 37 26 63l47 47l-81 81q-45 44 -47 104v11q0 53 35 88l10 10q36 36 86 36q6 0 13 -1q60 -2 104 -47l81 -81l57 58q25 25 63 25h11q46 -3 80 -37l41 -42l78 77q44 45 104 48h9q54 0 90 -36l10 -10q36 -36 36 -88 v-11q-3 -60 -48 -104l-77 -78l86 -85q34 -34 36 -79q1 -7 1 -13q0 -37 -25 -62l-58 -57l37 -37q45 -44 48 -104v-11q0 -52 -36 -88l-10 -10q-36 -36 -90 -36h-9q-60 3 -104 48l-37 37l-47 -47q-26 -26 -62 -26q-6 0 -12 1q-45 3 -79 37l-86 86l-88 -88q-44 -45 -104 -47 q-7 -1 -13 -1q-50 0 -86 36l-10 10q-35 35 -35 88zM565 784l144 -145l149 149l-144 145z" />
<glyph unicode="&#xa5;" horiz-adv-x="1267" d="M100 318v14q0 54 40 92q41 38 99 38h234v179h-234q-58 0 -99 38q-40 39 -40 92v14q0 45 29 80t74 46l-78 693h321l65 -642h246l64 642h321l-78 -693q45 -11 74 -46t29 -80v-14q0 -53 -40 -92q-41 -38 -99 -38h-234v-179h234q58 0 99 -38q40 -38 40 -92v-14q0 -54 -40 -92 q-41 -38 -99 -38h-234v-188h-321v188h-234q-58 0 -99 38q-40 38 -40 92z" />
<glyph unicode="&#xa6;" horiz-adv-x="360" d="M100 371h160v-789h-160v789zM100 789v789h160v-789h-160z" />
<glyph unicode="&#xa7;" d="M100 -53q0 63 45 107q44 45 107 45h490v162h-490q-63 0 -107 45q-45 45 -45 108v1038q0 63 45 108q44 44 107 44h659q62 0 107 -45q45 -44 45 -107v-17q0 -62 -45 -107t-107 -45h-490v-162h490q62 0 107 -45t45 -107v-1039q0 -63 -45 -107q-45 -45 -107 -45h-659 q-63 0 -107 45q-45 44 -45 107v17zM421 582h321v218h-321v-218z" />
<glyph unicode="&#xa8;" horiz-adv-x="973" d="M100 1921q0 64 45 110q46 45 110 45t110 -45q45 -46 45 -110t-45 -110q-46 -45 -110 -45t-110 45q-45 46 -45 110zM563 1921q0 64 46 110q45 45 110 45q64 0 109 -45q45 -46 45 -110t-45 -110q-45 -45 -109 -45q-65 0 -110 45q-46 46 -46 110z" />
<glyph unicode="&#xa9;" horiz-adv-x="1301" d="M100 291v1022q0 120 85 206q86 86 207 86l524 -1h15l7 -1l8 -1q102 -13 173 -88q71 -74 81 -177v-9l1 -8v-1029q0 -120 -86 -206q-86 -85 -206 -85h-517q-121 0 -207 85q-85 86 -85 206zM272 291q0 -49 35 -84t85 -35h517q49 0 84 35t35 84v219q0 49 -35 84t-84 35h-13 q-50 0 -85 -35t-35 -84v-86h-252v756h252v-69q0 -49 35 -84t85 -35h13q49 0 84 35t35 84v211q-4 42 -33 73t-71 36l-3 1h-529q-50 0 -85 -35t-35 -84v-1022z" />
<glyph unicode="&#xaa;" horiz-adv-x="860" d="M70 642l198 887q7 32 34 53q28 22 64 22h128q36 0 64 -22q27 -21 35 -54l197 -886h-222l-33 176h-210l-33 -176h-222zM138 333v11q0 45 22 76q23 32 54 32h433q31 0 53 -32q23 -31 23 -76v-11q0 -45 -23 -76q-22 -32 -53 -32h-433q-31 0 -54 32q-22 31 -22 76zM360 1011 h140l-70 375z" />
<glyph unicode="&#xab;" horiz-adv-x="1572" d="M100 785v20q0 129 341 420q87 74 166 74q15 0 29 -3q82 -12 120 -95q21 -45 21 -92q0 -36 -13 -74q-32 -95 -135 -138q-21 -9 -147 -47q-107 -31 -146 -55q39 -22 146 -55q126 -38 147 -47q103 -43 135 -138q13 -38 13 -74q0 -47 -21 -92q-38 -81 -120 -95q-14 -3 -29 -3 q-79 0 -166 74q-341 291 -341 420zM695 785v20q0 129 341 420q87 74 166 74q15 0 29 -3q82 -12 120 -95q21 -45 21 -92q0 -36 -13 -74q-32 -95 -135 -138q-21 -9 -147 -47q-107 -31 -146 -55q39 -22 146 -55q126 -38 147 -47q103 -43 135 -138q13 -38 13 -74q0 -47 -21 -92 q-38 -81 -120 -95q-14 -3 -29 -3q-79 0 -166 74q-341 291 -341 420z" />
<glyph unicode="&#xac;" horiz-adv-x="1196" d="M100 795v15q0 55 45 95q44 40 107 40h689q63 0 108 -40q41 -37 44 -86q3 -17 3 -35v-333h-285v209h-559q-63 0 -107 40q-45 39 -45 95z" />
<glyph unicode="&#xad;" horiz-adv-x="1135" d="M100 795v15q0 55 36 95q35 40 86 40h691q50 0 86 -40t36 -95v-15q0 -56 -36 -95q-36 -40 -86 -40h-691q-51 0 -86 40q-36 39 -36 95z" />
<glyph unicode="&#xae;" horiz-adv-x="1301" d="M100 291v1022q0 120 85 206q86 86 207 86h519q120 -2 204 -86q85 -85 86 -206v-1022q-1 -121 -86 -206q-84 -84 -204 -86h-519q-121 0 -207 86q-85 86 -85 206zM272 172h252v504h252v-504h252v504q-49 0 -84 35t-35 84v13q0 50 35 85t84 35v397l-1 3v3l-1 3v3l-1 3v3 l-1 2l-1 3l-1 3l-1 3l-1 2l-1 3l-1 3l-2 2l-1 3l-1 3l-2 2l-1 3l-2 2l-1 2l-2 3l-2 2l-1 2l-2 3l-2 2l-2 2l-2 2l-2 2l-2 2l-2 2l-2 2l-2 2l-3 2l-2 1l-2 2l-3 2l-2 1l-2 2l-3 1l-2 2l-3 1l-3 1l-2 2l-3 1l-3 1l-2 1l-3 1l-3 1l-3 1h-2l-3 1l-3 1h-3l-3 1h-3l-3 1h-649 v-1260zM524 928v252h252v-252h-252z" />
<glyph unicode="&#xaf;" horiz-adv-x="1127" d="M100 1912v13q0 53 37 90q38 37 90 37h673q52 0 90 -37q37 -37 37 -90v-13q0 -53 -37 -90q-38 -37 -151 -37h-612q-52 0 -90 37q-37 37 -37 90z" />
<glyph unicode="&#xb0;" horiz-adv-x="756" d="M9 1254q0 155 109.5 265t264.5 110t264.5 -110t109.5 -265t-109.5 -264.5t-264.5 -109.5t-264.5 109.5t-109.5 264.5zM227 1254q0 -66 46 -113.5t110 -47.5q65 0 110.5 47.5t45.5 113.5q0 67 -45.5 114.5t-110.5 47.5q-64 0 -110 -47.5t-46 -114.5z" />
<glyph unicode="&#xb1;" horiz-adv-x="1369" d="M100 135v15q0 55 45 95q44 40 107 40h313q-23 37 -23 85v290h-290q-63 0 -107 40q-45 39 -45 95v15q0 55 45 95q44 40 107 40h290v290q0 63 40 107q40 45 95 45h15q56 0 95 -45q40 -44 40 -107v-290h290q63 0 108 -40q44 -40 44 -95v-15q0 -56 -44 -95q-45 -40 -108 -40 h-290v-290q0 -48 -23 -85h313q63 0 108 -40q44 -40 44 -95v-15q0 -56 -44 -95q-45 -40 -108 -40h-865q-63 0 -107 40q-45 39 -45 95z" />
<glyph unicode="&#xb2;" horiz-adv-x="978" d="M100 735q0 22 3 33l46 362q0 38 27 65q27 26 64 26h245v194h-247q-38 0 -64 26q-27 27 -27 65v9q0 38 27 65q26 27 64 27h348q38 0 65 -27t27 -65v-394q0 -38 -27 -65t-65 -27h-256l-25 -192h281q38 0 65 -27t27 -64v-11q0 -37 -27 -64t-65 -27h-395q-38 0 -64 27 q-27 27 -27 64z" />
<glyph unicode="&#xb3;" horiz-adv-x="978" d="M100 743v11q0 37 27 64q26 27 64 27h294v192h-247q-38 0 -64 27q-27 27 -27 65v10q0 38 27 64q26 27 64 27h247v193h-247q-38 0 -64 26q-27 27 -27 65v9q0 38 27 65q26 27 64 27h348q38 0 65 -27t27 -65v-293q-38 0 -65 -27q-27 -26 -27 -64v-10q0 -38 27 -65t65 -27 v-294q0 -37 -27 -64t-65 -27h-395q-38 0 -64 27q-27 27 -27 64z" />
<glyph unicode="&#xb4;" horiz-adv-x="661" d="M100 1691l91 442h350l-310 -442h-131z" />
<glyph unicode="&#xb5;" horiz-adv-x="1162" d="M100 -222v1826h320v-1283h321v1283h321v-1452q0 -63 -45 -107q-44 -45 -107 -45h-559v-222h-251z" />
<glyph unicode="&#xb6;" horiz-adv-x="1532" d="M70 1158q0 185 130.5 315.5t315.5 130.5l996 -2v-251h-151v-1573h-251v1573h-255v-1573h-251v942q-42 -8 -88 -8q-185 0 -315.5 131t-130.5 315z" />
<glyph unicode="&#xb7;" horiz-adv-x="508" d="M98 705q0 61 43 104q44 44 106 44q61 0 104 -44q44 -43 44 -104q0 -62 -44 -106q-43 -43 -104 -43q-62 0 -106 43q-43 44 -43 106z" />
<glyph unicode="&#xb8;" horiz-adv-x="703" d="M100 -402q0 33 23 56q24 24 56 24h9q33 0 56 -24q24 -23 24 -56v-15h167v112h-101q-98 0 -147 36q-40 30 -40 81v9q8 97 121 185h146q-16 -18 -37 -40q-38 -39 -49 -54t-11 -25q0 -24 57 -24h150q32 0 56 -24q23 -23 23 -56v-288q0 -33 -23 -56q-24 -23 -56 -23h-345 q-32 0 -56 23q-23 23 -23 56v103z" />
<glyph unicode="&#xb9;" horiz-adv-x="996" d="M60 473v10q0 38 27 65q26 27 64 27h51v577h-51q-38 0 -64 27q-27 27 -27 65v9q0 38 27 65q26 26 64 26h153q37 0 64 -26q27 -27 27 -65v-678h51q38 0 65 -27t27 -65v-10q0 -38 -27 -64q-27 -27 -65 -27h-295q-38 0 -64 27q-27 26 -27 64z" />
<glyph unicode="&#xba;" horiz-adv-x="836" d="M88 476v780q0 38 30 65q29 26 70 26h435q41 0 71 -26q30 -27 30 -65v-780q0 -38 -30 -64q-30 -27 -71 -27h-435q-41 0 -70 27q-30 26 -30 64zM88 236v14q0 52 22 89q23 37 54 37h433q31 0 53 -37q23 -37 23 -89v-14q0 -52 -23 -89q-22 -37 -53 -37h-433q-31 0 -54 37 q-22 37 -22 89zM300 578h212v577h-212v-577z" />
<glyph unicode="&#xbb;" horiz-adv-x="1572" d="M100 481q0 36 13 74q32 95 134 138q21 9 148 47q107 33 146 55q-39 24 -146 55q-127 38 -148 47q-102 43 -134 138q-13 38 -13 74q0 47 21 92q38 83 119 95q14 3 30 3q78 0 166 -74q341 -291 341 -420v-20q0 -129 -341 -420q-88 -74 -166 -74q-16 0 -30 3q-81 14 -119 95 q-21 45 -21 92zM695 481q0 36 13 74q32 95 134 138q21 9 148 47q107 33 146 55q-39 24 -146 55q-127 38 -148 47q-102 43 -134 138q-13 38 -13 74q0 47 21 92q38 83 119 95q14 3 30 3q78 0 166 -74q341 -291 341 -420v-20q0 -129 -341 -420q-88 -74 -166 -74q-16 0 -30 3 q-81 14 -119 95q-21 45 -21 92z" />
<glyph unicode="&#xbc;" horiz-adv-x="1828" d="M100 745v10q0 37 27 63q26 27 63 27h50v570h-50q-37 0 -63 26q-27 26 -27 64v9q0 37 27 64q26 26 63 26h150q38 0 64 -26q26 -27 26 -64v-669h50q38 0 64 -27q27 -26 27 -63v-10q0 -37 -27 -63q-26 -27 -64 -27h-290q-37 0 -63 27q-27 26 -27 63zM408 -8l782 1603h213 l-782 -1603h-213zM1157 367q0 19 2 30l114 554h178l-86 -484h173v484h190v-951h-190v277h-291q-37 0 -63 27q-27 26 -27 63z" />
<glyph unicode="&#xbd;" horiz-adv-x="1926" d="M100 745v10q0 37 27 63q26 27 63 27h50v570h-50q-37 0 -63 26q-27 26 -27 64v9q0 37 27 64q26 26 63 26h150q38 0 64 -26q26 -27 26 -64v-669h50q38 0 64 -27q27 -26 27 -63v-10q0 -37 -27 -63q-26 -27 -64 -27h-290q-37 0 -63 27q-27 26 -27 63zM408 -8l782 1603h213 l-782 -1603h-213zM1248 91q0 22 3 33l46 362q0 38 27 65q27 26 64 26h245v194h-247q-38 0 -64 26q-27 27 -27 65v9q0 38 27 65q26 27 64 27h348q38 0 65 -27t27 -65v-394q0 -38 -27 -65t-65 -27h-256l-25 -192h281q38 0 65 -27t27 -64v-11q0 -37 -27 -64t-65 -27h-395 q-38 0 -64 27q-27 27 -27 64z" />
<glyph unicode="&#xbe;" horiz-adv-x="1945" d="M100 743v11q0 37 27 64q26 27 64 27h294v192h-247q-38 0 -64 27q-27 27 -27 65v10q0 38 27 64q26 27 64 27h247v193h-247q-38 0 -64 26q-27 27 -27 65v9q0 38 27 65q26 27 64 27h348q38 0 65 -27t27 -65v-293q-38 0 -65 -27q-27 -26 -27 -64v-10q0 -38 27 -65t65 -27 v-294q0 -37 -27 -64t-65 -27h-395q-38 0 -64 27q-27 27 -27 64zM525 -8l782 1603h213l-782 -1603h-213zM1274 367q0 19 2 30l114 554h178l-86 -484h173v484h190v-951h-190v277h-291q-37 0 -63 27q-27 26 -27 63z" />
<glyph unicode="&#xbf;" d="M100 152v659q0 62 45 107q44 45 107 45h309v54q0 63 45 107q44 45 107 45h17q63 0 107 -45q45 -44 45 -107v-223q0 -62 -44 -107q-44 -44 -106 -45h-311v-321h490q62 0 107 -45t45 -108v-16q0 -63 -45 -108q-45 -44 -107 -44h-659q-63 0 -107 44q-45 45 -45 108z M547 1429q0 73 51 124t123 51q73 0 124 -51t51 -124q0 -72 -51 -123t-124 -51q-72 0 -123 51t-51 123z" />
<glyph unicode="&#xc0;" horiz-adv-x="1231" d="M70 0l300 1479q10 54 52 89q42 36 97 36h193q55 0 97 -36t53 -90l299 -1478h-336l-50 294h-319l-50 -294h-336zM322 2140h350l91 -442h-131zM510 615h211l-106 626z" />
<glyph unicode="&#xc1;" horiz-adv-x="1231" d="M70 0l300 1479q10 54 52 89q42 36 97 36h193q55 0 97 -36t53 -90l299 -1478h-336l-50 294h-319l-50 -294h-336zM469 1691l91 442h350l-310 -442h-131zM510 615h211l-106 626z" />
<glyph unicode="&#xc2;" horiz-adv-x="1231" d="M70 0l300 1479q10 54 52 89q42 36 97 36h193q55 0 97 -36t53 -90l299 -1478h-336l-50 294h-319l-50 -294h-336zM257 1778q0 56 53 118q207 243 299 243h14q92 0 299 -243q53 -62 53 -118q0 -11 -2 -21q-9 -58 -68 -85q-32 -15 -65 -15q-26 0 -53 9q-68 23 -98 96 q-7 15 -34 105q-22 76 -39 104q-16 -28 -39 -104q-27 -90 -34 -105q-30 -73 -98 -96q-27 -9 -53 -9q-33 0 -65 15q-58 27 -68 85q-2 10 -2 21zM510 615h211l-106 626z" />
<glyph unicode="&#xc3;" horiz-adv-x="1231" d="M70 0l300 1479q10 54 52 89q42 36 97 36h193q55 0 97 -36t53 -90l299 -1478h-336l-50 294h-319l-50 -294h-336zM301 1845v31q0 106 63 148q38 26 93 26q25 0 55 -6q22 -4 101 -37q68 -27 91 -27h2q19 1 27 15q23 43 53 50q18 4 34 4q29 0 55 -12q51 -23 54 -88v-12 q1 -10 1 -19q0 -104 -61 -146q-39 -28 -97 -28q-22 0 -47 4q-21 4 -107 38q-69 28 -94 28h-4q-16 -3 -23 -15q-23 -43 -53 -50q-18 -4 -34 -4q-29 0 -55 12q-51 23 -54 88zM510 615h211l-106 626z" />
<glyph unicode="&#xc4;" horiz-adv-x="1231" d="M70 0l300 1479q10 54 52 89q42 36 97 36h193q55 0 97 -36t53 -90l299 -1478h-336l-50 294h-319l-50 -294h-336zM229 1921q0 64 45 110q46 45 110 45t110 -45q45 -46 45 -110t-45 -110q-46 -45 -110 -45t-110 45q-45 46 -45 110zM510 615h211l-106 626zM692 1921 q0 64 46 110q45 45 110 45q64 0 109 -45q45 -46 45 -110t-45 -110q-45 -45 -109 -45q-65 0 -110 45q-46 46 -46 110z" />
<glyph unicode="&#xc5;" horiz-adv-x="1231" d="M70 0l300 1479q10 54 52 89q41 35 95 36q-53 20 -97 64q-80 81 -80 195t80 195q81 81 195 81q115 0 196 -81q80 -81 80 -195t-80 -195q-44 -44 -98 -64q54 0 96 -36t53 -90l299 -1478h-336l-50 294h-319l-50 -294h-336zM482 1863q0 -55 39 -95q39 -39 94 -39q56 0 95 39 q39 40 39 95t-39 94q-39 40 -95 40q-55 0 -94 -40q-39 -39 -39 -94zM510 615h211l-106 626z" />
<glyph unicode="&#xc6;" horiz-adv-x="1664" d="M70 0l300 1479q10 54 52 89q42 36 97 36h193q13 0 25 -2q13 2 26 2h659q63 0 107 -44q45 -45 45 -108v-16q0 -63 -45 -108q-44 -45 -107 -45h-490v-321h423q63 0 108 -45q44 -44 44 -107v-17q0 -62 -44 -107q-45 -45 -108 -45h-423v-320h490q63 0 107 -45q45 -45 45 -107 v-17q0 -63 -45 -107q-44 -45 -107 -45h-659q-62 0 -107 45q-45 44 -45 107v142h-155l-50 -294h-336zM510 615h101v602z" />
<glyph unicode="&#xc7;" d="M100 152v1300q0 63 45 108q44 44 107 44h670l4 -1h4q54 -7 91 -46q36 -39 41 -93v-4l1 -4v-261q0 -62 -45 -107t-108 -45h-16q-63 0 -108 45q-44 45 -44 107v88h-321v-962h321v109q0 63 44 107q45 45 108 45h16q63 0 108 -45q45 -44 45 -107v-278q0 -63 -45 -107 q-45 -45 -108 -45h-271q-14 -15 -32 -34q-38 -39 -49 -54t-11 -25q0 -24 57 -24h150q32 0 56 -24q23 -23 23 -56v-288q0 -33 -23 -56q-24 -23 -56 -23h-345q-32 0 -56 23q-23 23 -23 56v103q0 33 23 56q24 24 56 24h9q33 0 56 -24q24 -23 24 -56v-15h167v112h-101 q-98 0 -147 36q-40 30 -40 81v9q8 94 114 179h-239q-63 0 -107 45q-45 44 -45 107z" />
<glyph unicode="&#xc8;" d="M100 152v1300q0 63 45 108q45 44 107 44h659q63 0 107 -44q45 -45 45 -108v-16q0 -63 -45 -108q-44 -45 -107 -45h-490v-321h423q63 0 108 -45q44 -44 44 -107v-17q0 -62 -44 -107q-45 -45 -108 -45h-423v-320h490q63 0 107 -45q45 -45 45 -107v-17q0 -63 -45 -107 q-44 -45 -107 -45h-659q-62 0 -107 45q-45 44 -45 107zM288 2140h350l91 -442h-131z" />
<glyph unicode="&#xc9;" d="M100 152v1300q0 63 45 108q45 44 107 44h659q63 0 107 -44q45 -45 45 -108v-16q0 -63 -45 -108q-44 -45 -107 -45h-490v-321h423q63 0 108 -45q44 -44 44 -107v-17q0 -62 -44 -107q-45 -45 -108 -45h-423v-320h490q63 0 107 -45q45 -45 45 -107v-17q0 -63 -45 -107 q-44 -45 -107 -45h-659q-62 0 -107 45q-45 44 -45 107zM435 1691l91 442h350l-310 -442h-131z" />
<glyph unicode="&#xca;" d="M100 152v1300q0 63 45 108q45 44 107 44h659q63 0 107 -44q45 -45 45 -108v-16q0 -63 -45 -108q-44 -45 -107 -45h-490v-321h423q63 0 108 -45q44 -44 44 -107v-17q0 -62 -44 -107q-45 -45 -108 -45h-423v-320h490q63 0 107 -45q45 -45 45 -107v-17q0 -63 -45 -107 q-44 -45 -107 -45h-659q-62 0 -107 45q-45 44 -45 107zM223 1778q0 56 53 118q207 243 299 243h14q92 0 299 -243q53 -62 53 -118q0 -11 -2 -21q-9 -58 -68 -85q-32 -15 -65 -15q-26 0 -53 9q-68 23 -98 96q-7 15 -34 105q-22 76 -39 104q-16 -28 -39 -104q-27 -90 -34 -105 q-30 -73 -98 -96q-27 -9 -53 -9q-33 0 -65 15q-58 27 -68 85q-2 10 -2 21z" />
<glyph unicode="&#xcb;" d="M100 152v1300q0 63 45 108q45 44 107 44h659q63 0 107 -44q45 -45 45 -108v-16q0 -63 -45 -108q-44 -45 -107 -45h-490v-321h423q63 0 108 -45q44 -44 44 -107v-17q0 -62 -44 -107q-45 -45 -108 -45h-423v-320h490q63 0 107 -45q45 -45 45 -107v-17q0 -63 -45 -107 q-44 -45 -107 -45h-659q-62 0 -107 45q-45 44 -45 107zM195 1921q0 64 45 110q46 45 110 45t110 -45q45 -46 45 -110t-45 -110q-46 -45 -110 -45t-110 45q-45 46 -45 110zM658 1921q0 64 46 110q45 45 110 45q64 0 109 -45q45 -46 45 -110t-45 -110q-45 -45 -109 -45 q-65 0 -110 45q-46 46 -46 110z" />
<glyph unicode="&#xcc;" horiz-adv-x="541" d="M-23 2140h350l91 -442h-131zM110 0v1604h321v-1604h-321z" />
<glyph unicode="&#xcd;" horiz-adv-x="541" d="M110 0v1604h321v-1604h-321zM124 1691l91 442h350l-310 -442h-131z" />
<glyph unicode="&#xce;" horiz-adv-x="541" d="M-88 1778q0 56 53 118q207 243 299 243h14q92 0 299 -243q53 -62 53 -118q0 -11 -2 -21q-9 -58 -68 -85q-32 -15 -65 -15q-26 0 -53 9q-68 23 -98 96q-7 15 -34 105q-22 76 -39 104q-16 -28 -39 -104q-27 -90 -34 -105q-30 -73 -98 -96q-27 -9 -53 -9q-33 0 -65 15 q-58 27 -68 85q-2 10 -2 21zM111 0v1604h321v-1604h-321z" />
<glyph unicode="&#xcf;" horiz-adv-x="541" d="M-116 1921q0 64 45 110q46 45 110 45t110 -45q45 -46 45 -110t-45 -110q-46 -45 -110 -45t-110 45q-45 46 -45 110zM110 0v1604h321v-1604h-321zM347 1921q0 64 46 110q45 45 110 45q64 0 109 -45q45 -46 45 -110t-45 -110q-45 -45 -109 -45q-65 0 -110 45 q-46 46 -46 110z" />
<glyph unicode="&#xd0;" horiz-adv-x="1321" d="M20 795v14q0 52 45 89t108 37h86v669h810q63 0 108 -44q44 -45 44 -108v-1300q0 -63 -44 -107q-45 -45 -108 -45h-810v669h-86q-63 0 -108 37t-45 89zM580 321h320v962h-320v-348h113q62 0 107 -37t45 -89v-14q0 -52 -45 -89t-107 -37h-113v-348z" />
<glyph unicode="&#xd1;" d="M100 0v1604h181q65 -2 102 -29q34 -25 76 -97l283 -676v802h321v-1604h-182q-65 2 -101 29q-34 25 -76 97l-283 676v-802h-321zM267 1845v31q0 106 63 148q38 26 93 26q25 0 55 -6q22 -4 101 -37q68 -27 91 -27h2q19 1 27 15q23 43 53 50q18 4 34 4q29 0 55 -12 q51 -23 54 -88v-12q1 -10 1 -19q0 -104 -61 -146q-39 -28 -97 -28q-22 0 -47 4q-21 4 -107 38q-69 28 -94 28h-4q-16 -3 -23 -15q-23 -43 -53 -50q-18 -4 -34 -4q-29 0 -55 12q-51 23 -54 88z" />
<glyph unicode="&#xd2;" d="M100 152v1300q0 63 45 108q44 44 107 44h658q63 0 108 -44q45 -45 45 -108v-1300q0 -63 -45 -107q-45 -45 -108 -45h-658q-63 0 -107 45q-45 44 -45 107zM288 2140h350l91 -442h-131zM421 321h321v963h-321v-963z" />
<glyph unicode="&#xd3;" d="M100 152v1300q0 63 45 108q44 44 107 44h658q63 0 108 -44q45 -45 45 -108v-1300q0 -63 -45 -107q-45 -45 -108 -45h-658q-63 0 -107 45q-45 44 -45 107zM421 321h321v963h-321v-963zM435 1691l91 442h350l-310 -442h-131z" />
<glyph unicode="&#xd4;" d="M100 152v1300q0 63 45 108q44 44 107 44h658q63 0 108 -44q45 -45 45 -108v-1300q0 -63 -45 -107q-45 -45 -108 -45h-658q-63 0 -107 45q-45 44 -45 107zM223 1778q0 56 53 118q207 243 299 243h14q92 0 299 -243q53 -62 53 -118q0 -11 -2 -21q-9 -58 -68 -85 q-32 -15 -65 -15q-26 0 -53 9q-68 23 -98 96q-7 15 -34 105q-22 76 -39 104q-16 -28 -39 -104q-27 -90 -34 -105q-30 -73 -98 -96q-27 -9 -53 -9q-33 0 -65 15q-58 27 -68 85q-2 10 -2 21zM421 321h321v963h-321v-963z" />
<glyph unicode="&#xd5;" d="M100 152v1300q0 63 45 108q44 44 107 44h658q63 0 108 -44q45 -45 45 -108v-1300q0 -63 -45 -107q-45 -45 -108 -45h-658q-63 0 -107 45q-45 44 -45 107zM267 1845v31q0 106 63 148q38 26 93 26q25 0 55 -6q22 -4 101 -37q68 -27 91 -27h2q19 1 27 15q23 43 53 50 q18 4 34 4q29 0 55 -12q51 -23 54 -88v-12q1 -10 1 -19q0 -104 -61 -146q-39 -28 -97 -28q-22 0 -47 4q-21 4 -107 38q-69 28 -94 28h-4q-16 -3 -23 -15q-23 -43 -53 -50q-18 -4 -34 -4q-29 0 -55 12q-51 23 -54 88zM421 321h321v963h-321v-963z" />
<glyph unicode="&#xd6;" d="M100 152v1300q0 63 45 108q44 44 107 44h658q63 0 108 -44q45 -45 45 -108v-1300q0 -63 -45 -107q-45 -45 -108 -45h-658q-63 0 -107 45q-45 44 -45 107zM195 1921q0 64 45 110q46 45 110 45t110 -45q45 -46 45 -110t-45 -110q-46 -45 -110 -45t-110 45q-45 46 -45 110z M421 321h321v963h-321v-963zM658 1921q0 64 46 110q45 45 110 45q64 0 109 -45q45 -46 45 -110t-45 -110q-45 -45 -109 -45q-65 0 -110 45q-46 46 -46 110z" />
<glyph unicode="&#xd7;" horiz-adv-x="1369" d="M231 482v11q2 60 47 104l205 206l-205 205q-45 44 -47 104v11q0 53 35 88l10 10q36 36 86 36q6 0 13 -1q60 -2 104 -47l206 -205l205 205q44 45 104 48h9q54 0 90 -36l10 -10q36 -36 36 -88v-11q-3 -60 -48 -104l-205 -205l205 -206q45 -44 48 -104v-11q0 -52 -36 -88 l-10 -10q-36 -36 -90 -36h-9q-60 3 -104 48l-205 205l-206 -205q-44 -45 -104 -47q-7 -1 -13 -1q-50 0 -86 36l-10 10q-35 35 -35 88z" />
<glyph unicode="&#xd8;" d="M100 152v1300q0 63 45 108q44 44 107 44h546l88 239h154l-89 -244q37 -10 67 -39q45 -45 45 -108v-1300q0 -63 -45 -107q-45 -45 -108 -45h-545l-73 -199h-154l75 204q-38 10 -68 40q-45 44 -45 107zM421 574l260 710h-260v-710zM482 321h260v708z" />
<glyph unicode="&#xd9;" horiz-adv-x="1162" d="M100 152v1452h320v-1283h321v1283h321v-1452q0 -63 -45 -107q-44 -45 -107 -45h-658q-63 0 -108 45q-44 44 -44 107zM287 2140h350l91 -442h-131z" />
<glyph unicode="&#xda;" horiz-adv-x="1162" d="M100 152v1452h320v-1283h321v1283h321v-1452q0 -63 -45 -107q-44 -45 -107 -45h-658q-63 0 -108 45q-44 44 -44 107zM434 1691l91 442h350l-310 -442h-131z" />
<glyph unicode="&#xdb;" horiz-adv-x="1162" d="M100 152v1452h320v-1283h321v1283h321v-1452q0 -63 -45 -107q-44 -45 -107 -45h-658q-63 0 -108 45q-44 44 -44 107zM222 1778q0 56 53 118q207 243 299 243h14q92 0 299 -243q53 -62 53 -118q0 -11 -2 -21q-9 -58 -68 -85q-32 -15 -65 -15q-26 0 -53 9q-68 23 -98 96 q-7 15 -34 105q-22 76 -39 104q-16 -28 -39 -104q-27 -90 -34 -105q-30 -73 -98 -96q-27 -9 -53 -9q-33 0 -65 15q-58 27 -68 85q-2 10 -2 21z" />
<glyph unicode="&#xdc;" horiz-adv-x="1162" d="M100 152v1452h320v-1283h321v1283h321v-1452q0 -63 -45 -107q-44 -45 -107 -45h-658q-63 0 -108 45q-44 44 -44 107zM195 1921q0 64 45 110q46 45 110 45t110 -45q45 -46 45 -110t-45 -110q-46 -45 -110 -45t-110 45q-45 46 -45 110zM658 1921q0 64 46 110q45 45 110 45 q64 0 109 -45q45 -46 45 -110t-45 -110q-45 -45 -109 -45q-65 0 -110 45q-46 46 -46 110z" />
<glyph unicode="&#xdd;" horiz-adv-x="1217" d="M100 1604h321l65 -642h246l64 642h321l-91 -810q-8 -65 -49 -108q-43 -44 -104 -44h-104v-642h-321v642h-104q-63 0 -108 44q-44 45 -44 108zM462 1691l91 442h350l-310 -442h-131z" />
<glyph unicode="&#xde;" d="M100 -200v1604h10v200h321v-200h495l4 -1h3l4 -1l4 -1h4l3 -1l4 -1l4 -1l3 -2l4 -1l3 -1l3 -2l4 -1l3 -2l3 -1h1l3 -2l3 -2l3 -2l3 -2l3 -2l3 -2l3 -2l3 -2l3 -2l3 -3l3 -2l2 -3l3 -2l2 -3l3 -3l2 -2l3 -3l2 -3l2 -3l2 -3l2 -3l2 -3l2 -3l2 -3l2 -3l2 -4l1 -3l2 -3l2 -4 l1 -3l1 -4l1 -3h1l1 -4l1 -3l1 -4l1 -3v-4l1 -4l1 -4v-3l1 -4v-12l1 -4v-658q0 -63 -45 -108q-45 -44 -108 -44h-479v-442h-10v-200h-321zM431 762h311v322h-311v-322z" />
<glyph unicode="&#xe0;" horiz-adv-x="1231" d="M70 0l300 1479q10 54 52 89q42 36 97 36h193q55 0 97 -36t53 -90l299 -1478h-336l-50 294h-319l-50 -294h-336zM322 2140h350l91 -442h-131zM510 615h211l-106 626z" />
<glyph unicode="&#xe1;" horiz-adv-x="1231" d="M70 0l300 1479q10 54 52 89q42 36 97 36h193q55 0 97 -36t53 -90l299 -1478h-336l-50 294h-319l-50 -294h-336zM469 1691l91 442h350l-310 -442h-131zM510 615h211l-106 626z" />
<glyph unicode="&#xe2;" horiz-adv-x="1231" d="M70 0l300 1479q10 54 52 89q42 36 97 36h193q55 0 97 -36t53 -90l299 -1478h-336l-50 294h-319l-50 -294h-336zM257 1778q0 56 53 118q207 243 299 243h14q92 0 299 -243q53 -62 53 -118q0 -11 -2 -21q-9 -58 -68 -85q-32 -15 -65 -15q-26 0 -53 9q-68 23 -98 96 q-7 15 -34 105q-22 76 -39 104q-16 -28 -39 -104q-27 -90 -34 -105q-30 -73 -98 -96q-27 -9 -53 -9q-33 0 -65 15q-58 27 -68 85q-2 10 -2 21zM510 615h211l-106 626z" />
<glyph unicode="&#xe3;" horiz-adv-x="1231" d="M70 0l300 1479q10 54 52 89q42 36 97 36h193q55 0 97 -36t53 -90l299 -1478h-336l-50 294h-319l-50 -294h-336zM301 1845v31q0 106 63 148q38 26 93 26q25 0 55 -6q22 -4 101 -37q68 -27 91 -27h2q19 1 27 15q23 43 53 50q18 4 34 4q29 0 55 -12q51 -23 54 -88v-12 q1 -10 1 -19q0 -104 -61 -146q-39 -28 -97 -28q-22 0 -47 4q-21 4 -107 38q-69 28 -94 28h-4q-16 -3 -23 -15q-23 -43 -53 -50q-18 -4 -34 -4q-29 0 -55 12q-51 23 -54 88zM510 615h211l-106 626z" />
<glyph unicode="&#xe4;" horiz-adv-x="1231" d="M70 0l300 1479q10 54 52 89q42 36 97 36h193q55 0 97 -36t53 -90l299 -1478h-336l-50 294h-319l-50 -294h-336zM229 1921q0 64 45 110q46 45 110 45t110 -45q45 -46 45 -110t-45 -110q-46 -45 -110 -45t-110 45q-45 46 -45 110zM510 615h211l-106 626zM692 1921 q0 64 46 110q45 45 110 45q64 0 109 -45q45 -46 45 -110t-45 -110q-45 -45 -109 -45q-65 0 -110 45q-46 46 -46 110z" />
<glyph unicode="&#xe5;" horiz-adv-x="1231" d="M70 0l300 1479q10 54 52 89q41 35 95 36q-53 20 -97 64q-80 81 -80 195t80 195q81 81 195 81q115 0 196 -81q80 -81 80 -195t-80 -195q-44 -44 -98 -64q54 0 96 -36t53 -90l299 -1478h-336l-50 294h-319l-50 -294h-336zM482 1863q0 -55 39 -95q39 -39 94 -39q56 0 95 39 q39 40 39 95t-39 94q-39 40 -95 40q-55 0 -94 -40q-39 -39 -39 -94zM510 615h211l-106 626z" />
<glyph unicode="&#xe6;" horiz-adv-x="1664" d="M70 0l300 1479q10 54 52 89q42 36 97 36h193q13 0 25 -2q13 2 26 2h659q63 0 107 -44q45 -45 45 -108v-16q0 -63 -45 -108q-44 -45 -107 -45h-490v-321h423q63 0 108 -45q44 -44 44 -107v-17q0 -62 -44 -107q-45 -45 -108 -45h-423v-320h490q63 0 107 -45q45 -45 45 -107 v-17q0 -63 -45 -107q-44 -45 -107 -45h-659q-62 0 -107 45q-45 44 -45 107v142h-155l-50 -294h-336zM510 615h101v602z" />
<glyph unicode="&#xe7;" d="M100 152v1300q0 63 45 108q44 44 107 44h670l4 -1h4q54 -7 91 -46q36 -39 41 -93v-4l1 -4v-261q0 -62 -45 -107t-108 -45h-16q-63 0 -108 45q-44 45 -44 107v88h-321v-962h321v109q0 63 44 107q45 45 108 45h16q63 0 108 -45q45 -44 45 -107v-278q0 -63 -45 -107 q-45 -45 -108 -45h-271q-14 -15 -32 -34q-38 -39 -49 -54t-11 -25q0 -24 57 -24h150q32 0 56 -24q23 -23 23 -56v-288q0 -33 -23 -56q-24 -23 -56 -23h-345q-32 0 -56 23q-23 23 -23 56v103q0 33 23 56q24 24 56 24h9q33 0 56 -24q24 -23 24 -56v-15h167v112h-101 q-98 0 -147 36q-40 30 -40 81v9q8 94 114 179h-239q-63 0 -107 45q-45 44 -45 107z" />
<glyph unicode="&#xe8;" d="M100 152v1300q0 63 45 108q45 44 107 44h659q63 0 107 -44q45 -45 45 -108v-16q0 -63 -45 -108q-44 -45 -107 -45h-490v-321h423q63 0 108 -45q44 -44 44 -107v-17q0 -62 -44 -107q-45 -45 -108 -45h-423v-320h490q63 0 107 -45q45 -45 45 -107v-17q0 -63 -45 -107 q-44 -45 -107 -45h-659q-62 0 -107 45q-45 44 -45 107zM288 2140h350l91 -442h-131z" />
<glyph unicode="&#xe9;" d="M100 152v1300q0 63 45 108q45 44 107 44h659q63 0 107 -44q45 -45 45 -108v-16q0 -63 -45 -108q-44 -45 -107 -45h-490v-321h423q63 0 108 -45q44 -44 44 -107v-17q0 -62 -44 -107q-45 -45 -108 -45h-423v-320h490q63 0 107 -45q45 -45 45 -107v-17q0 -63 -45 -107 q-44 -45 -107 -45h-659q-62 0 -107 45q-45 44 -45 107zM435 1691l91 442h350l-310 -442h-131z" />
<glyph unicode="&#xea;" d="M100 152v1300q0 63 45 108q45 44 107 44h659q63 0 107 -44q45 -45 45 -108v-16q0 -63 -45 -108q-44 -45 -107 -45h-490v-321h423q63 0 108 -45q44 -44 44 -107v-17q0 -62 -44 -107q-45 -45 -108 -45h-423v-320h490q63 0 107 -45q45 -45 45 -107v-17q0 -63 -45 -107 q-44 -45 -107 -45h-659q-62 0 -107 45q-45 44 -45 107zM223 1778q0 56 53 118q207 243 299 243h14q92 0 299 -243q53 -62 53 -118q0 -11 -2 -21q-9 -58 -68 -85q-32 -15 -65 -15q-26 0 -53 9q-68 23 -98 96q-7 15 -34 105q-22 76 -39 104q-16 -28 -39 -104q-27 -90 -34 -105 q-30 -73 -98 -96q-27 -9 -53 -9q-33 0 -65 15q-58 27 -68 85q-2 10 -2 21z" />
<glyph unicode="&#xeb;" d="M100 152v1300q0 63 45 108q45 44 107 44h659q63 0 107 -44q45 -45 45 -108v-16q0 -63 -45 -108q-44 -45 -107 -45h-490v-321h423q63 0 108 -45q44 -44 44 -107v-17q0 -62 -44 -107q-45 -45 -108 -45h-423v-320h490q63 0 107 -45q45 -45 45 -107v-17q0 -63 -45 -107 q-44 -45 -107 -45h-659q-62 0 -107 45q-45 44 -45 107zM195 1921q0 64 45 110q46 45 110 45t110 -45q45 -46 45 -110t-45 -110q-46 -45 -110 -45t-110 45q-45 46 -45 110zM658 1921q0 64 46 110q45 45 110 45q64 0 109 -45q45 -46 45 -110t-45 -110q-45 -45 -109 -45 q-65 0 -110 45q-46 46 -46 110z" />
<glyph unicode="&#xec;" horiz-adv-x="541" d="M-23 2140h350l91 -442h-131zM110 0v1604h321v-1604h-321z" />
<glyph unicode="&#xed;" horiz-adv-x="541" d="M110 0v1604h321v-1604h-321zM124 1691l91 442h350l-310 -442h-131z" />
<glyph unicode="&#xee;" horiz-adv-x="541" d="M-88 1778q0 56 53 118q207 243 299 243h14q92 0 299 -243q53 -62 53 -118q0 -11 -2 -21q-9 -58 -68 -85q-32 -15 -65 -15q-26 0 -53 9q-68 23 -98 96q-7 15 -34 105q-22 76 -39 104q-16 -28 -39 -104q-27 -90 -34 -105q-30 -73 -98 -96q-27 -9 -53 -9q-33 0 -65 15 q-58 27 -68 85q-2 10 -2 21zM111 0v1604h321v-1604h-321z" />
<glyph unicode="&#xef;" horiz-adv-x="541" d="M-116 1921q0 64 45 110q46 45 110 45t110 -45q45 -46 45 -110t-45 -110q-46 -45 -110 -45t-110 45q-45 46 -45 110zM110 0v1604h321v-1604h-321zM347 1921q0 64 46 110q45 45 110 45q64 0 109 -45q45 -46 45 -110t-45 -110q-45 -45 -109 -45q-65 0 -110 45 q-46 46 -46 110z" />
<glyph unicode="&#xf1;" d="M100 0v1604h181q65 -2 102 -29q34 -25 76 -97l283 -676v802h321v-1604h-182q-65 2 -101 29q-34 25 -76 97l-283 676v-802h-321zM267 1845v31q0 106 63 148q38 26 93 26q25 0 55 -6q22 -4 101 -37q68 -27 91 -27h2q19 1 27 15q23 43 53 50q18 4 34 4q29 0 55 -12 q51 -23 54 -88v-12q1 -10 1 -19q0 -104 -61 -146q-39 -28 -97 -28q-22 0 -47 4q-21 4 -107 38q-69 28 -94 28h-4q-16 -3 -23 -15q-23 -43 -53 -50q-18 -4 -34 -4q-29 0 -55 12q-51 23 -54 88z" />
<glyph unicode="&#xf2;" d="M100 152v1300q0 63 45 108q44 44 107 44h658q63 0 108 -44q45 -45 45 -108v-1300q0 -63 -45 -107q-45 -45 -108 -45h-658q-63 0 -107 45q-45 44 -45 107zM288 2140h350l91 -442h-131zM421 321h321v963h-321v-963z" />
<glyph unicode="&#xf3;" d="M100 152v1300q0 63 45 108q44 44 107 44h658q63 0 108 -44q45 -45 45 -108v-1300q0 -63 -45 -107q-45 -45 -108 -45h-658q-63 0 -107 45q-45 44 -45 107zM421 321h321v963h-321v-963zM435 1691l91 442h350l-310 -442h-131z" />
<glyph unicode="&#xf4;" d="M100 152v1300q0 63 45 108q44 44 107 44h658q63 0 108 -44q45 -45 45 -108v-1300q0 -63 -45 -107q-45 -45 -108 -45h-658q-63 0 -107 45q-45 44 -45 107zM223 1778q0 56 53 118q207 243 299 243h14q92 0 299 -243q53 -62 53 -118q0 -11 -2 -21q-9 -58 -68 -85 q-32 -15 -65 -15q-26 0 -53 9q-68 23 -98 96q-7 15 -34 105q-22 76 -39 104q-16 -28 -39 -104q-27 -90 -34 -105q-30 -73 -98 -96q-27 -9 -53 -9q-33 0 -65 15q-58 27 -68 85q-2 10 -2 21zM421 321h321v963h-321v-963z" />
<glyph unicode="&#xf5;" d="M100 152v1300q0 63 45 108q44 44 107 44h658q63 0 108 -44q45 -45 45 -108v-1300q0 -63 -45 -107q-45 -45 -108 -45h-658q-63 0 -107 45q-45 44 -45 107zM267 1845v31q0 106 63 148q38 26 93 26q25 0 55 -6q22 -4 101 -37q68 -27 91 -27h2q19 1 27 15q23 43 53 50 q18 4 34 4q29 0 55 -12q51 -23 54 -88v-12q1 -10 1 -19q0 -104 -61 -146q-39 -28 -97 -28q-22 0 -47 4q-21 4 -107 38q-69 28 -94 28h-4q-16 -3 -23 -15q-23 -43 -53 -50q-18 -4 -34 -4q-29 0 -55 12q-51 23 -54 88zM421 321h321v963h-321v-963z" />
<glyph unicode="&#xf6;" d="M100 152v1300q0 63 45 108q44 44 107 44h658q63 0 108 -44q45 -45 45 -108v-1300q0 -63 -45 -107q-45 -45 -108 -45h-658q-63 0 -107 45q-45 44 -45 107zM195 1921q0 64 45 110q46 45 110 45t110 -45q45 -46 45 -110t-45 -110q-46 -45 -110 -45t-110 45q-45 46 -45 110z M421 321h321v963h-321v-963zM658 1921q0 64 46 110q45 45 110 45q64 0 109 -45q45 -46 45 -110t-45 -110q-45 -45 -109 -45q-65 0 -110 45q-46 46 -46 110z" />
<glyph unicode="&#xf7;" horiz-adv-x="1369" d="M100 795v15q0 55 45 95q44 40 107 40h865q63 0 108 -40q44 -40 44 -95v-15q0 -56 -44 -95q-45 -40 -108 -40h-865q-63 0 -107 40q-45 39 -45 95zM510 474q0 72 51 124q51 51 124 51q72 0 123 -51q51 -52 51 -124t-51 -123q-51 -52 -123 -52q-73 0 -124 52q-51 51 -51 123 zM510 1131q0 73 51 124t124 51q72 0 123 -51t51 -124q0 -72 -51 -123t-123 -51q-73 0 -124 51t-51 123z" />
<glyph unicode="&#xf8;" d="M100 152v1300q0 63 45 108q44 44 107 44h546l88 239h154l-89 -244q37 -10 67 -39q45 -45 45 -108v-1300q0 -63 -45 -107q-45 -45 -108 -45h-545l-73 -199h-154l75 204q-38 10 -68 40q-45 44 -45 107zM421 574l260 710h-260v-710zM482 321h260v708z" />
<glyph unicode="&#xf9;" horiz-adv-x="1162" d="M100 152v1452h320v-1283h321v1283h321v-1452q0 -63 -45 -107q-44 -45 -107 -45h-658q-63 0 -108 45q-44 44 -44 107zM287 2140h350l91 -442h-131z" />
<glyph unicode="&#xfa;" horiz-adv-x="1162" d="M100 152v1452h320v-1283h321v1283h321v-1452q0 -63 -45 -107q-44 -45 -107 -45h-658q-63 0 -108 45q-44 44 -44 107zM434 1691l91 442h350l-310 -442h-131z" />
<glyph unicode="&#xfb;" horiz-adv-x="1162" d="M100 152v1452h320v-1283h321v1283h321v-1452q0 -63 -45 -107q-44 -45 -107 -45h-658q-63 0 -108 45q-44 44 -44 107zM222 1778q0 56 53 118q207 243 299 243h14q92 0 299 -243q53 -62 53 -118q0 -11 -2 -21q-9 -58 -68 -85q-32 -15 -65 -15q-26 0 -53 9q-68 23 -98 96 q-7 15 -34 105q-22 76 -39 104q-16 -28 -39 -104q-27 -90 -34 -105q-30 -73 -98 -96q-27 -9 -53 -9q-33 0 -65 15q-58 27 -68 85q-2 10 -2 21z" />
<glyph unicode="&#xfc;" horiz-adv-x="1162" d="M100 152v1452h320v-1283h321v1283h321v-1452q0 -63 -45 -107q-44 -45 -107 -45h-658q-63 0 -108 45q-44 44 -44 107zM195 1921q0 64 45 110q46 45 110 45t110 -45q45 -46 45 -110t-45 -110q-46 -45 -110 -45t-110 45q-45 46 -45 110zM658 1921q0 64 46 110q45 45 110 45 q64 0 109 -45q45 -46 45 -110t-45 -110q-45 -45 -109 -45q-65 0 -110 45q-46 46 -46 110z" />
<glyph unicode="&#xfd;" horiz-adv-x="1217" d="M100 1604h321l65 -642h246l64 642h321l-91 -810q-8 -65 -49 -108q-43 -44 -104 -44h-104v-642h-321v642h-104q-63 0 -108 44q-44 45 -44 108zM462 1691l91 442h350l-310 -442h-131z" />
<glyph unicode="&#xfe;" d="M100 -200v1604h10v200h321v-200h495l4 -1h3l4 -1l4 -1h4l3 -1l4 -1l4 -1l3 -2l4 -1l3 -1l3 -2l4 -1l3 -2l3 -1h1l3 -2l3 -2l3 -2l3 -2l3 -2l3 -2l3 -2l3 -2l3 -2l3 -3l3 -2l2 -3l3 -2l2 -3l3 -3l2 -2l3 -3l2 -3l2 -3l2 -3l2 -3l2 -3l2 -3l2 -3l2 -3l2 -4l1 -3l2 -3l2 -4 l1 -3l1 -4l1 -3h1l1 -4l1 -3l1 -4l1 -3v-4l1 -4l1 -4v-3l1 -4v-12l1 -4v-658q0 -63 -45 -108q-45 -44 -108 -44h-479v-442h-10v-200h-321zM431 762h311v322h-311v-322z" />
<glyph unicode="&#xff;" horiz-adv-x="1217" d="M100 1604h321l65 -642h246l64 642h321l-91 -810q-8 -65 -49 -108q-43 -44 -104 -44h-104v-642h-321v642h-104q-63 0 -108 44q-44 45 -44 108zM222 1921q0 64 45 110q46 45 110 45t110 -45q45 -46 45 -110t-45 -110q-46 -45 -110 -45t-110 45q-45 46 -45 110zM685 1921 q0 64 46 110q45 45 110 45q64 0 109 -45q45 -46 45 -110t-45 -110q-45 -45 -109 -45q-65 0 -110 45q-46 46 -46 110z" />
<glyph unicode="&#x2c6;" horiz-adv-x="895" d="M0 1778q0 56 53 118q207 243 299 243h14q92 0 299 -243q53 -62 53 -118q0 -11 -2 -21q-9 -58 -68 -85q-32 -15 -65 -15q-26 0 -53 9q-68 23 -98 96q-7 15 -34 105q-22 76 -39 104q-16 -28 -39 -104q-27 -90 -34 -105q-30 -73 -98 -96q-27 -9 -53 -9q-33 0 -65 15 q-58 27 -68 85q-2 10 -2 21z" />
<glyph unicode="&#x2dc;" horiz-adv-x="829" d="M100 1845v31q0 106 63 148q38 26 93 26q25 0 55 -6q22 -4 101 -37q68 -27 91 -27h2q19 1 27 15q23 43 53 50q18 4 34 4q29 0 55 -12q51 -23 54 -88v-12q1 -10 1 -19q0 -104 -61 -146q-39 -28 -97 -28q-22 0 -47 4q-21 4 -107 38q-69 28 -94 28h-4q-16 -3 -23 -15 q-23 -43 -53 -50q-18 -4 -34 -4q-29 0 -55 12q-51 23 -54 88z" />
<glyph unicode="&#x2000;" horiz-adv-x="1070" />
<glyph unicode="&#x2001;" horiz-adv-x="2140" />
<glyph unicode="&#x2002;" horiz-adv-x="1070" />
<glyph unicode="&#x2003;" horiz-adv-x="2140" />
<glyph unicode="&#x2004;" horiz-adv-x="713" />
<glyph unicode="&#x2005;" horiz-adv-x="535" />
<glyph unicode="&#x2006;" horiz-adv-x="356" />
<glyph unicode="&#x2007;" horiz-adv-x="356" />
<glyph unicode="&#x2008;" horiz-adv-x="267" />
<glyph unicode="&#x2009;" horiz-adv-x="428" />
<glyph unicode="&#x200a;" horiz-adv-x="118" />
<glyph unicode="&#x2010;" horiz-adv-x="1135" d="M100 795v15q0 55 36 95q35 40 86 40h691q50 0 86 -40t36 -95v-15q0 -56 -36 -95q-36 -40 -86 -40h-691q-51 0 -86 40q-36 39 -36 95z" />
<glyph unicode="&#x2011;" horiz-adv-x="1135" d="M100 795v15q0 55 36 95q35 40 86 40h691q50 0 86 -40t36 -95v-15q0 -56 -36 -95q-36 -40 -86 -40h-691q-51 0 -86 40q-36 39 -36 95z" />
<glyph unicode="&#x2012;" horiz-adv-x="1135" d="M100 795v15q0 55 36 95q35 40 86 40h691q50 0 86 -40t36 -95v-15q0 -56 -36 -95q-36 -40 -86 -40h-691q-51 0 -86 40q-36 39 -36 95z" />
<glyph unicode="&#x2013;" horiz-adv-x="1607" d="M100 795v15q0 55 45 95q44 40 107 40h1103q63 0 108 -40q44 -40 44 -95v-15q0 -56 -44 -95q-45 -40 -108 -40h-1103q-63 0 -107 40q-45 39 -45 95z" />
<glyph unicode="&#x2014;" horiz-adv-x="2542" d="M100 795v15q0 55 45 95q44 40 107 40h2038q63 0 108 -40q44 -40 44 -95v-15q0 -56 -44 -95q-45 -40 -108 -40h-2038q-63 0 -107 40q-45 39 -45 95z" />
<glyph unicode="&#x2018;" horiz-adv-x="549" d="M100 1225q0 43 19 81l127 298h132l-37 -217q108 -45 108 -162q0 -72 -51 -123t-124 -51q-72 0 -123 51t-51 123z" />
<glyph unicode="&#x2019;" horiz-adv-x="549" d="M100 1430q0 72 51 123t124 51q72 0 123 -51t51 -123q0 -43 -19 -81l-127 -298h-132l37 217q-108 45 -108 162z" />
<glyph unicode="&#x201a;" horiz-adv-x="549" d="M100 175q0 72 51 123t124 51q72 0 123 -51t51 -123q0 -43 -19 -81l-127 -298h-132l37 217q-108 44 -108 162z" />
<glyph unicode="&#x201c;" horiz-adv-x="1038" d="M100 1225q0 43 19 81l127 298h132l-37 -217q108 -45 108 -162q0 -72 -51 -123t-124 -51q-72 0 -123 51t-51 123zM589 1225q0 43 19 81l127 298h132l-37 -217q108 -45 108 -162q0 -72 -51 -123t-124 -51q-72 0 -123 51t-51 123z" />
<glyph unicode="&#x201d;" horiz-adv-x="1038" d="M100 1430q0 72 51 123t124 51q72 0 123 -51t51 -123q0 -43 -19 -81l-127 -298h-132l37 217q-108 45 -108 162zM589 1430q0 72 51 123t124 51q72 0 123 -51t51 -123q0 -43 -19 -81l-127 -298h-132l37 217q-108 45 -108 162z" />
<glyph unicode="&#x201e;" horiz-adv-x="1038" d="M100 103q0 72 51 123t124 51q72 0 123 -51t51 -123q0 -43 -19 -81l-127 -298h-132l37 217q-108 45 -108 162zM589 103q0 72 51 123t124 51q72 0 123 -51t51 -123q0 -43 -19 -81l-127 -298h-132l37 217q-108 45 -108 162z" />
<glyph unicode="&#x2022;" horiz-adv-x="1028" d="M100 809q0 151 106.5 257.5t257.5 106.5t257.5 -106.5t106.5 -257.5t-106.5 -257.5t-257.5 -106.5t-257.5 106.5t-106.5 257.5z" />
<glyph unicode="&#x2026;" horiz-adv-x="2048" d="M100 175q0 72 51 123t124 51q72 0 123 -51t51 -123q0 -73 -51 -124t-123 -51q-73 0 -124 51t-51 124zM783 175q0 72 51 123t124 51q72 0 123 -51t51 -123q0 -73 -51 -124t-123 -51q-73 0 -124 51t-51 124zM1466 175q0 72 51 123t124 51q72 0 123 -51t51 -123 q0 -73 -51 -124t-123 -51q-73 0 -124 51t-51 124z" />
<glyph unicode="&#x202f;" horiz-adv-x="428" />
<glyph unicode="&#x2039;" horiz-adv-x="977" d="M100 785v20q0 129 341 420q87 74 166 74q15 0 29 -3q82 -12 120 -95q21 -45 21 -92q0 -36 -13 -74q-32 -95 -135 -138q-21 -9 -147 -47q-107 -31 -146 -55q39 -22 146 -55q126 -38 147 -47q103 -43 135 -138q13 -38 13 -74q0 -47 -21 -92q-38 -81 -120 -95q-14 -3 -29 -3 q-79 0 -166 74q-341 291 -341 420z" />
<glyph unicode="&#x203a;" horiz-adv-x="977" d="M100 481q0 36 13 74q32 95 134 138q21 9 148 47q107 33 146 55q-39 24 -146 55q-127 38 -148 47q-102 43 -134 138q-13 38 -13 74q0 47 21 92q38 83 119 95q14 3 30 3q78 0 166 -74q341 -291 341 -420v-20q0 -129 -341 -420q-88 -74 -166 -74q-16 0 -30 3q-81 14 -119 95 q-21 45 -21 92z" />
<glyph unicode="&#x205f;" horiz-adv-x="535" />
<glyph unicode="&#x2122;" horiz-adv-x="1411" d="M35 959v7q0 25 20 43t48 18h356q29 0 49 -18t20 -43v-7q0 -25 -20 -43q-20 -17 -49 -17h-105v-514h-145v514h-106q-28 0 -48 17q-20 18 -20 43zM293 385v581q0 25 20 43q21 18 48 18h222q0 -26 20 -43q20 -18 49 -18h7q28 0 48 18q20 17 20 43h221q28 0 48 -18t20 -43 v-581h-144v513h-146v-513h-144v513h-145v-513h-144z" />
<glyph unicode="&#x25fc;" horiz-adv-x="1605" d="M0 0v1605h1605v-1605h-1605z" />
</font>
</defs>
</svg>
